<mxfile host="app.diagrams.net" agent="Mozilla/5.0 (Windows NT 10.0; Win64; x64) AppleWebKit/537.36 (KHTML, like Gecko) Chrome/135.0.0.0 Safari/537.36" version="26.2.14">
  <diagram name="PÃ¡gina-1" id="L3CY9Zn9ow7aydlJnmbf">
    <mxGraphModel dx="786" dy="430" grid="1" gridSize="10" guides="1" tooltips="1" connect="1" arrows="1" fold="1" page="1" pageScale="1" pageWidth="827" pageHeight="1169" math="0" shadow="0">
      <root>
        <mxCell id="0" />
        <mxCell id="1" parent="0" />
        <mxCell id="2VpBoDJDA6gEnMopslod-22" style="edgeStyle=orthogonalEdgeStyle;rounded=0;orthogonalLoop=1;jettySize=auto;html=1;exitX=1;exitY=0.5;exitDx=0;exitDy=0;entryX=0;entryY=0.5;entryDx=0;entryDy=0;" edge="1" parent="1" source="2VpBoDJDA6gEnMopslod-2" target="2VpBoDJDA6gEnMopslod-12">
          <mxGeometry relative="1" as="geometry" />
        </mxCell>
        <mxCell id="2VpBoDJDA6gEnMopslod-2" value="Process and read recommendation file" style="rounded=1;whiteSpace=wrap;html=1;absoluteArcSize=1;arcSize=14;strokeWidth=2;fillColor=#dae8fc;strokeColor=#6c8ebf;" vertex="1" parent="1">
          <mxGeometry x="110" y="140" width="100" height="100" as="geometry" />
        </mxCell>
        <mxCell id="2VpBoDJDA6gEnMopslod-3" value="Processes" style="rounded=0;whiteSpace=wrap;html=1;fillColor=#dae8fc;strokeColor=#6c8ebf;" vertex="1" parent="1">
          <mxGeometry x="650" y="140" width="120" height="60" as="geometry" />
        </mxCell>
        <mxCell id="2VpBoDJDA6gEnMopslod-4" value="Temporary files" style="rounded=0;whiteSpace=wrap;html=1;fillColor=#f8cecc;strokeColor=#b85450;" vertex="1" parent="1">
          <mxGeometry x="650" y="220" width="120" height="60" as="geometry" />
        </mxCell>
        <mxCell id="2VpBoDJDA6gEnMopslod-5" value="Input files" style="rounded=0;whiteSpace=wrap;html=1;fillColor=#e1d5e7;strokeColor=#9673a6;" vertex="1" parent="1">
          <mxGeometry x="650" y="60" width="120" height="60" as="geometry" />
        </mxCell>
        <mxCell id="2VpBoDJDA6gEnMopslod-6" value="Output files" style="rounded=0;whiteSpace=wrap;html=1;fillColor=#d5e8d4;strokeColor=#82b366;" vertex="1" parent="1">
          <mxGeometry x="650" y="300" width="120" height="60" as="geometry" />
        </mxCell>
        <mxCell id="2VpBoDJDA6gEnMopslod-8" value="Color description:" style="text;html=1;align=center;verticalAlign=middle;resizable=0;points=[];autosize=1;strokeColor=none;fillColor=none;" vertex="1" parent="1">
          <mxGeometry x="570" y="10" width="110" height="30" as="geometry" />
        </mxCell>
        <mxCell id="2VpBoDJDA6gEnMopslod-18" style="edgeStyle=orthogonalEdgeStyle;rounded=0;orthogonalLoop=1;jettySize=auto;html=1;entryX=0.5;entryY=0;entryDx=0;entryDy=0;" edge="1" parent="1" source="2VpBoDJDA6gEnMopslod-9" target="2VpBoDJDA6gEnMopslod-2">
          <mxGeometry relative="1" as="geometry" />
        </mxCell>
        <mxCell id="2VpBoDJDA6gEnMopslod-9" value="&lt;div&gt;recommendation&lt;span style=&quot;background-color: transparent; color: light-dark(rgb(0, 0, 0), rgb(255, 255, 255));&quot;&gt;s&lt;/span&gt;&lt;/div&gt;&lt;div&gt;&lt;span style=&quot;background-color: transparent; color: light-dark(rgb(0, 0, 0), rgb(255, 255, 255));&quot;&gt;_file.tsv&lt;/span&gt;&lt;/div&gt;" style="strokeWidth=2;html=1;shape=mxgraph.flowchart.document2;whiteSpace=wrap;size=0.25;fillColor=#e1d5e7;strokeColor=#9673a6;" vertex="1" parent="1">
          <mxGeometry x="110" y="20" width="100" height="60" as="geometry" />
        </mxCell>
        <mxCell id="2VpBoDJDA6gEnMopslod-21" style="edgeStyle=orthogonalEdgeStyle;rounded=0;orthogonalLoop=1;jettySize=auto;html=1;entryX=0.5;entryY=0;entryDx=0;entryDy=0;" edge="1" parent="1" source="2VpBoDJDA6gEnMopslod-10" target="2VpBoDJDA6gEnMopslod-12">
          <mxGeometry relative="1" as="geometry" />
        </mxCell>
        <mxCell id="2VpBoDJDA6gEnMopslod-10" value="schema fastas" style="strokeWidth=2;html=1;shape=mxgraph.flowchart.document2;whiteSpace=wrap;size=0.25;fillColor=#e1d5e7;strokeColor=#9673a6;" vertex="1" parent="1">
          <mxGeometry x="260" y="20" width="100" height="60" as="geometry" />
        </mxCell>
        <mxCell id="2VpBoDJDA6gEnMopslod-24" style="edgeStyle=orthogonalEdgeStyle;rounded=0;orthogonalLoop=1;jettySize=auto;html=1;exitX=0.5;exitY=0.88;exitDx=0;exitDy=0;exitPerimeter=0;entryX=0.5;entryY=0;entryDx=0;entryDy=0;" edge="1" parent="1" source="2VpBoDJDA6gEnMopslod-11" target="2VpBoDJDA6gEnMopslod-13">
          <mxGeometry relative="1" as="geometry" />
        </mxCell>
        <mxCell id="2VpBoDJDA6gEnMopslod-11" value="temp_fastas" style="strokeWidth=2;html=1;shape=mxgraph.flowchart.multi-document;whiteSpace=wrap;fillColor=#f8cecc;strokeColor=#b85450;" vertex="1" parent="1">
          <mxGeometry x="414" y="160" width="88" height="60" as="geometry" />
        </mxCell>
        <mxCell id="2VpBoDJDA6gEnMopslod-12" value="Alter the loci fasta files according with the action" style="rounded=1;whiteSpace=wrap;html=1;absoluteArcSize=1;arcSize=14;strokeWidth=2;fillColor=#dae8fc;strokeColor=#6c8ebf;" vertex="1" parent="1">
          <mxGeometry x="260" y="140" width="100" height="100" as="geometry" />
        </mxCell>
        <mxCell id="2VpBoDJDA6gEnMopslod-28" style="edgeStyle=orthogonalEdgeStyle;rounded=0;orthogonalLoop=1;jettySize=auto;html=1;exitX=0.5;exitY=1;exitDx=0;exitDy=0;" edge="1" parent="1" source="2VpBoDJDA6gEnMopslod-13" target="2VpBoDJDA6gEnMopslod-17">
          <mxGeometry relative="1" as="geometry" />
        </mxCell>
        <mxCell id="2VpBoDJDA6gEnMopslod-13" value="Run AdaptLoci to restructure altered schema" style="rounded=1;whiteSpace=wrap;html=1;absoluteArcSize=1;arcSize=14;strokeWidth=2;fillColor=#dae8fc;strokeColor=#6c8ebf;" vertex="1" parent="1">
          <mxGeometry x="408" y="270" width="100" height="100" as="geometry" />
        </mxCell>
        <mxCell id="2VpBoDJDA6gEnMopslod-14" value="Final schema" style="strokeWidth=2;html=1;shape=mxgraph.flowchart.multi-document;whiteSpace=wrap;fillColor=#d5e8d4;strokeColor=#82b366;" vertex="1" parent="1">
          <mxGeometry x="560" y="410" width="88" height="60" as="geometry" />
        </mxCell>
        <mxCell id="2VpBoDJDA6gEnMopslod-15" value="schema_invalid&lt;div&gt;_alleles.txt&lt;/div&gt;" style="strokeWidth=2;html=1;shape=mxgraph.flowchart.document2;whiteSpace=wrap;size=0.25;fillColor=#d5e8d4;strokeColor=#82b366;" vertex="1" parent="1">
          <mxGeometry x="200" y="410" width="100" height="60" as="geometry" />
        </mxCell>
        <mxCell id="2VpBoDJDA6gEnMopslod-16" value="schema_invalid&lt;div&gt;_loci.txt&lt;/div&gt;" style="strokeWidth=2;html=1;shape=mxgraph.flowchart.document2;whiteSpace=wrap;size=0.25;fillColor=#d5e8d4;strokeColor=#82b366;" vertex="1" parent="1">
          <mxGeometry x="320" y="410" width="100" height="60" as="geometry" />
        </mxCell>
        <mxCell id="2VpBoDJDA6gEnMopslod-17" value="schema_summary&lt;div&gt;_stats_tsv&lt;/div&gt;" style="strokeWidth=2;html=1;shape=mxgraph.flowchart.document2;whiteSpace=wrap;size=0.25;fillColor=#d5e8d4;strokeColor=#82b366;" vertex="1" parent="1">
          <mxGeometry x="440" y="410" width="100" height="60" as="geometry" />
        </mxCell>
        <mxCell id="2VpBoDJDA6gEnMopslod-23" style="edgeStyle=orthogonalEdgeStyle;rounded=0;orthogonalLoop=1;jettySize=auto;html=1;exitX=1;exitY=0.5;exitDx=0;exitDy=0;entryX=0;entryY=0.5;entryDx=0;entryDy=0;entryPerimeter=0;" edge="1" parent="1" source="2VpBoDJDA6gEnMopslod-12" target="2VpBoDJDA6gEnMopslod-11">
          <mxGeometry relative="1" as="geometry" />
        </mxCell>
        <mxCell id="2VpBoDJDA6gEnMopslod-25" style="edgeStyle=orthogonalEdgeStyle;rounded=0;orthogonalLoop=1;jettySize=auto;html=1;exitX=0.5;exitY=1;exitDx=0;exitDy=0;entryX=0.553;entryY=0.172;entryDx=0;entryDy=0;entryPerimeter=0;" edge="1" parent="1" source="2VpBoDJDA6gEnMopslod-13" target="2VpBoDJDA6gEnMopslod-14">
          <mxGeometry relative="1" as="geometry" />
        </mxCell>
        <mxCell id="2VpBoDJDA6gEnMopslod-26" style="edgeStyle=orthogonalEdgeStyle;rounded=0;orthogonalLoop=1;jettySize=auto;html=1;entryX=0.5;entryY=0;entryDx=0;entryDy=0;entryPerimeter=0;exitX=0.5;exitY=1;exitDx=0;exitDy=0;" edge="1" parent="1" source="2VpBoDJDA6gEnMopslod-13" target="2VpBoDJDA6gEnMopslod-15">
          <mxGeometry relative="1" as="geometry" />
        </mxCell>
        <mxCell id="2VpBoDJDA6gEnMopslod-27" style="edgeStyle=orthogonalEdgeStyle;rounded=0;orthogonalLoop=1;jettySize=auto;html=1;exitX=0.5;exitY=1;exitDx=0;exitDy=0;entryX=0.5;entryY=0;entryDx=0;entryDy=0;entryPerimeter=0;" edge="1" parent="1" source="2VpBoDJDA6gEnMopslod-13" target="2VpBoDJDA6gEnMopslod-16">
          <mxGeometry relative="1" as="geometry" />
        </mxCell>
      </root>
    </mxGraphModel>
  </diagram>
</mxfile>
